<svg width="12" height="13" viewBox="0 0 12 13" fill="none" xmlns="http://www.w3.org/2000/svg">
<path d="M1 3.5H11M4.75 6V9.75M7.25 6V9.75M1.625 3.5L2.25 11C2.25 11.3315 2.3817 11.6495 2.61612 11.8839C2.85054 12.1183 3.16848 12.25 3.5 12.25H8.5C8.83152 12.25 9.14946 12.1183 9.38388 11.8839C9.6183 11.6495 9.75 11.3315 9.75 11L10.375 3.5M4.125 3.5V1.625C4.125 1.45924 4.19085 1.30027 4.30806 1.18306C4.42527 1.06585 4.58424 1 4.75 1H7.25C7.41576 1 7.57473 1.06585 7.69194 1.18306C7.80915 1.30027 7.875 1.45924 7.875 1.625V3.5" stroke="white" stroke-width="1.25" stroke-linecap="round" stroke-linejoin="round"/>
</svg>
