<svg width="12" height="11" viewBox="0 0 12 11" fill="none" xmlns="http://www.w3.org/2000/svg">
<path d="M2.37555 8.63216L4.9964 8.62325L10.7168 2.95751C10.9413 2.73302 11.0648 2.43489 11.0648 2.11775C11.0648 1.80061 10.9413 1.50248 10.7168 1.27798L9.77486 0.336069C9.32588 -0.112914 8.54254 -0.110538 8.09712 0.334288L2.37555 6.00122V8.63216ZM8.9351 1.17583L9.8788 2.11597L8.93035 3.05551L7.98843 2.11419L8.9351 1.17583ZM3.56334 6.49652L7.14451 2.9492L8.08643 3.89111L4.50584 7.43725L3.56334 7.44022V6.49652Z" fill="white"/>
<path d="M1.18779 11H9.50229C10.1574 11 10.6901 10.4673 10.6901 9.81223V4.66436L9.50229 5.85215V9.81223H3.0633C3.04786 9.81223 3.03182 9.81817 3.01638 9.81817C2.99679 9.81817 2.97719 9.81282 2.95699 9.81223H1.18779V1.49772H5.25417L6.44196 0.309937H1.18779C0.532722 0.309937 0 0.842659 0 1.49772V9.81223C0 10.4673 0.532722 11 1.18779 11Z" fill="white"/>
</svg>
